<svg width="900" height="200" viewBox="0 0 900 200" fill="none" xmlns="http://www.w3.org/2000/svg">
<path d="M241.327 200C229.187 200 218.513 197.5 209.303 192.708C200.094 187.708 193.187 180.833 188.164 171.666C183.141 162.5 180.629 152.083 180.629 140.208C180.629 128.333 183.141 117.708 187.954 108.75C192.978 99.7916 199.885 92.7083 209.303 87.9167C218.513 82.9167 229.187 80.625 241.327 80.625C257.024 80.625 269.792 84.5833 279.629 92.5C289.466 100.417 295.536 111.458 297.838 125.625H264.769C263.303 119.792 260.582 115.208 256.606 111.875C252.42 108.542 247.396 106.667 241.327 106.667C232.955 106.667 226.257 109.792 221.234 116.042C216.21 122.292 213.699 130.417 213.699 140.417C213.699 150.417 216.21 158.542 221.234 164.791C226.257 171.041 232.955 174.166 241.327 174.166C247.606 174.166 252.838 172.5 257.024 168.958C261.21 165.416 263.931 160.625 265.187 154.583H298.257C296.164 168.75 290.094 180 280.048 188.125C270.001 196.041 257.024 200 241.327 200Z" fill="white"/>
<path d="M426.14 198.542H397.674L394.744 184.375C390.558 189.167 385.744 192.917 380.302 195.833C374.86 198.542 368.163 200 360.209 200C346.395 200 335.302 195.833 326.721 187.292C318.14 178.958 313.744 164.792 313.744 145V81.667H345.977V141.25C345.977 151.875 347.86 159.792 351.628 165.208C355.395 170.625 361.047 173.333 368.791 173.333C376.954 173.333 383.023 170.417 387.628 164.375C392.023 158.334 394.326 150 394.326 139.167V81.667H426.558V198.542H426.14Z" fill="white"/>
<path d="M632.512 134.583V198.958H600.279V133.333C600.279 115.625 593.582 106.666 579.977 106.666C573.07 106.666 567.419 109.166 563.024 113.958C558.838 118.958 556.535 125.833 556.535 134.583V198.749H524.303V133.333C524.303 115.625 517.396 106.666 503.791 106.666C496.884 106.666 491.233 109.166 487.047 114.375C482.861 119.375 480.768 126.25 480.768 135V198.958H448.535V81.6663H476.582L479.512 96.2496C483.489 91.2497 488.093 87.2913 493.744 84.583C499.186 81.8747 506.093 80.4163 514.256 80.208C531 80.208 542.721 86.8747 549.21 99.9996C553.396 93.5413 559.047 88.7497 565.954 85.4163C572.861 82.083 580.814 80.208 589.605 80.208C602.163 80.208 612.628 84.3747 620.373 92.708C628.535 101.25 632.512 115 632.512 134.583Z" fill="white"/>
<path d="M676.469 87.7077C685.469 82.7077 695.725 80.416 707.445 80.416C719.376 80.416 729.841 82.7077 738.841 87.291C747.841 91.8743 754.957 98.3326 760.19 106.874C765.213 115.208 767.934 125.208 768.143 136.458C768.143 140.624 767.934 144.166 767.306 147.291H682.12V148.124C682.957 156.666 685.678 163.333 690.283 168.124C695.097 172.916 701.376 175.416 709.748 175.416C716.236 175.416 721.678 173.957 726.073 171.249C730.469 168.541 733.19 164.374 734.655 158.958H766.469C765.213 166.666 762.283 173.749 757.469 179.791C752.655 185.832 746.585 190.832 738.632 194.374C730.887 197.916 721.887 199.791 711.841 199.791C698.655 199.791 687.352 197.291 677.934 192.499C668.515 187.707 661.19 180.624 655.957 171.666C650.934 162.708 648.213 152.083 648.213 140.208C648.213 128.124 650.725 117.499 655.538 108.541C660.562 99.5826 667.469 92.7077 676.469 87.7077ZM726.911 109.999C722.097 106.041 716.027 104.166 708.701 104.166C701.794 104.166 695.725 106.249 690.911 110.208C686.097 114.166 683.166 119.583 682.329 126.458H735.701C734.655 119.374 731.725 113.958 726.911 109.999Z" fill="white"/>
<path d="M899.999 135.208V198.749H867.766V137.083C867.766 116.874 859.812 106.874 843.905 106.874C835.533 106.874 829.045 109.583 824.44 115.208C819.836 120.833 817.533 128.749 817.533 138.958V198.749H785.301V81.666H813.347L816.278 96.2493C820.464 91.2493 825.278 87.291 831.138 84.5827C836.998 81.8743 844.115 80.416 852.696 80.416C866.51 80.416 877.603 84.5827 886.603 93.1243C895.603 101.666 899.999 115.624 899.999 135.208Z" fill="white"/>
<path d="M79.5364 39.375H120.769L178.746 198.541H141.909L129.56 163.75H68.8619L56.5131 198.541H20.9316L79.5364 39.375ZM120.141 136.25L98.7922 75.8333L77.8619 136.25H120.141Z" fill="white"/>
<path d="M64.8867 0L74.096 30.4166H118.468L64.8867 0Z" fill="#B6B6B6"/>
<path d="M64.8838 0L74.0931 30.4166L11.3023 197.083L0 174.791L64.8838 0Z" fill="url(#paint0_linear_117_6142)"/>
<defs>
<linearGradient id="paint0_linear_117_6142" x1="4.48012" y1="191.32" x2="44.7623" y2="80.5616" gradientUnits="userSpaceOnUse">
<stop offset="0.3549" stop-color="#767676"/>
<stop offset="1" stop-color="#D0CACA"/>
</linearGradient>
</defs>
</svg>
